<?xml version="1.0" encoding="utf-8"?>
<!-- Generator: Adobe Illustrator 17.0.0, SVG Export Plug-In . SVG Version: 6.00 Build 0)  -->
<!DOCTYPE svg PUBLIC "-//W3C//DTD SVG 1.1//EN" "http://www.w3.org/Graphics/SVG/1.1/DTD/svg11.dtd">
<svg version="1.1" id="Layer_1" xmlns="http://www.w3.org/2000/svg" xmlns:xlink="http://www.w3.org/1999/xlink" x="0px" y="0px"
	 width="425.2px" height="425.2px" viewBox="0 0 425.2 425.2" enable-background="new 0 0 425.2 425.2" xml:space="preserve">
<g>
	<path fill="#414042" d="M357.305,87.315l-0.059-0.029l-24.055-13.889l-0.074-0.044l-24.04-13.889l-0.074-0.029l-24.055-13.889
		l-0.059-0.044l-24.055-13.874l-0.059-0.044l-24.055-13.889l-0.074-0.029l-24.04-13.889l-0.074-0.044l-24.055,13.889v0.074
		l-0.059-0.029l-24.055,13.889v0.074l-0.059-0.044l-24.055,13.889v0.074l-0.074-0.044l-24.04,13.889v0.074l-0.074-0.029
		L92.009,73.324v0.074l-0.059-0.044L67.895,87.242v334.18l24.055-13.889l0.059-0.029l24.055-13.889l0.074-0.044l24.04-13.874
		l0.074-0.044l24.055-13.889l0.059-0.029l24.055-13.889l0.059-0.044l24.055-13.889l0.074-0.029v0.074l24.04,13.889l0.074-0.044
		v0.074l24.055,13.889l0.059-0.029v0.074l24.055,13.889l0.059-0.044v0.074l24.055,13.889l0.074-0.044v0.074l24.04,13.889
		l0.074-0.029v0.074l24.055,13.889l0.059-0.044v-27.777l-0.059-0.029l0.059-0.044v-27.763l-0.059-0.044l0.059-0.029v-27.777
		l-0.059-0.044l0.059-0.029v-27.777l-0.059-0.044l0.059-0.029v-27.777l-0.059-0.029l0.059-0.044v-27.777l-0.059-0.029l0.059-0.044
		v-27.777l-0.059-0.029l0.059-0.044v-27.763l-0.059-0.044l0.059-0.029v-27.777l-0.059-0.044l0.059-0.029v-27.777l-0.059-0.044
		l0.059-0.029v-27.777l-0.059-0.029l0.059-0.044V87.315z M333.191,379.727l-0.074-0.029l-24.04-13.889l-0.074-0.044l-24.055-13.889
		l-0.059-0.029l-24.055-13.889l-0.059-0.044l-24.055-13.889l-0.074-0.029l-24.04-13.889l-0.074-0.044l-24.055,13.889v0.074
		l-0.059-0.029l-24.055,13.889v0.074l-0.059-0.044l-24.055,13.889v0.074l-0.074-0.029l-24.04,13.889v0.074l-0.074-0.044
		l-24.055,13.889v0.074l-0.059-0.029l0.059-0.044v-27.777l-0.059-0.029l0.059-0.044v-27.777l-0.059-0.029l0.059-0.044v-27.763
		l-0.059-0.044l0.059-0.044v-27.763l-0.059-0.044l0.059-0.029v-27.777l-0.059-0.044l0.059-0.029v-27.777l-0.059-0.044l0.059-0.029
		v-27.777l-0.059-0.029l0.059-0.044v-27.777l-0.059-0.029l0.059-0.044v-27.763l-0.059-0.044l0.059-0.044v-27.763l-0.059-0.044
		l0.059-0.029l24.055-13.889l0.074-0.044l24.04-13.889l0.074-0.029l24.055-13.889l0.059-0.044l24.055-13.889l0.059-0.029
		l24.055-13.889l0.074-0.029v0.074l24.04,13.874l0.074-0.029v0.074l24.055,13.889l0.059-0.044v0.074l24.055,13.889l0.059-0.029
		v0.074l24.055,13.889l0.074-0.044v0.074l24.04,13.889l0.074-0.029V379.727z"/>
	<path fill="#414042" d="M309.077,115.166l-0.074-0.029l-24.055-13.889l-0.059-0.044l-24.055-13.889l-0.059-0.029l-24.055-13.889
		l-0.074-0.044l-24.04-13.889l-0.074-0.029l-24.055,13.889v0.074l-0.059-0.044l-24.055,13.889v0.074l-0.059-0.029l-24.055,13.889
		v0.074l-0.074-0.044l-24.04,13.889v222.792l24.04-13.889l0.074-0.044v-27.763l-0.074-0.044l0.074-0.044v-27.763l-0.074-0.044
		l0.074-0.029v-27.777l-0.074-0.044l0.074-0.029v0.074l24.055,13.889l0.059-0.044v0.074l24.055,13.889l0.059-0.029v0.074
		l24.055,13.889l0.074-0.044v0.074l24.04,13.889l0.074-0.044v0.088l24.055,13.874l0.059-0.029v0.074l24.055,13.889l0.059-0.044
		v0.074l24.055,13.889l0.074-0.029v-27.777l-0.074-0.044l-24.055-13.874l-0.059-0.044l-24.055-13.889l-0.059-0.029l-24.055-13.889
		l-0.074-0.044l0.074-0.029l24.055-13.889l0.059-0.044l24.055-13.889l0.059-0.029l24.055-13.889l0.074-0.044v-27.763l-0.074-0.044
		l0.074-0.029v-27.777l-0.074-0.044l0.074-0.029v-27.777l-0.074-0.044l0.074-0.029V115.166z M284.949,212.637l-0.059-0.044
		l-24.055,13.889v0.074l-0.059-0.029l-24.055,13.889v0.074l-0.074-0.044l-24.04,13.889v0.074l-0.074-0.029l-24.055-13.889
		l-0.059-0.044l-24.055-13.889l-0.059-0.029l-24.055-13.889l-0.074-0.044l0.074-0.029v-27.777l-0.074-0.029l0.074-0.044v-27.777
		l-0.074-0.029l0.074-0.044v-27.763l-0.074-0.044l0.074-0.044l24.055-13.874l0.059-0.044l24.055-13.889l0.059-0.029l24.055-13.889
		l0.074-0.044v0.074l24.04,13.889l0.074-0.029v0.074l24.055,13.889l0.059-0.044v0.074l24.055,13.889l0.059-0.044V212.637z"/>
</g>
</svg>
