<?xml version="1.0" encoding="UTF-8" standalone="no"?>
<!-- Generator: Adobe Illustrator 17.0.0, SVG Export Plug-In . SVG Version: 6.00 Build 0)  -->

<svg
   xmlns:dc="http://purl.org/dc/elements/1.1/"
   xmlns:cc="http://creativecommons.org/ns#"
   xmlns:rdf="http://www.w3.org/1999/02/22-rdf-syntax-ns#"
   xmlns:svg="http://www.w3.org/2000/svg"
   xmlns="http://www.w3.org/2000/svg"
   xmlns:sodipodi="http://sodipodi.sourceforge.net/DTD/sodipodi-0.dtd"
   xmlns:inkscape="http://www.inkscape.org/namespaces/inkscape"
   version="1.1"
   id="Layer_1"
   x="0px"
   y="0px"
   width="425.2px"
   height="425.2px"
   viewBox="0 0 425.2 425.2"
   enable-background="new 0 0 425.2 425.2"
   xml:space="preserve"
   inkscape:version="0.48.4 r9939"
   sodipodi:docname="logo grey.svg"><metadata
     id="metadata13"><rdf:RDF><cc:Work
         rdf:about=""><dc:format>image/svg+xml</dc:format><dc:type
           rdf:resource="http://purl.org/dc/dcmitype/StillImage" /></cc:Work></rdf:RDF></metadata><defs
     id="defs11" /><sodipodi:namedview
     pagecolor="#ffffff"
     bordercolor="#666666"
     borderopacity="1"
     objecttolerance="10"
     gridtolerance="10"
     guidetolerance="10"
     inkscape:pageopacity="0"
     inkscape:pageshadow="2"
     inkscape:window-width="1366"
     inkscape:window-height="744"
     id="namedview9"
     showgrid="false"
     inkscape:zoom="1.5698701"
     inkscape:cx="192.71199"
     inkscape:cy="301.4256"
     inkscape:window-x="0"
     inkscape:window-y="24"
     inkscape:window-maximized="1"
     inkscape:current-layer="Layer_1" /><g
     id="g3"><path
       d="M357.305,87.315l-0.059-0.029l-24.055-13.889l-0.074-0.044l-24.04-13.889l-0.074-0.029l-24.055-13.889   l-0.059-0.044l-24.055-13.874l-0.059-0.044l-24.055-13.889l-0.074-0.029l-24.04-13.889l-0.074-0.044l-24.055,13.889v0.074   l-0.059-0.029l-24.055,13.889v0.074l-0.059-0.044l-24.055,13.889v0.074l-0.074-0.044l-24.04,13.889v0.074l-0.074-0.029   L92.009,73.324v0.074l-0.059-0.044L67.895,87.242v334.18l24.055-13.889l0.059-0.029l24.055-13.889l0.074-0.044l24.04-13.874   l0.074-0.044l24.055-13.889l0.059-0.029l24.055-13.889l0.059-0.044l24.055-13.889l0.074-0.029v0.074l24.04,13.889l0.074-0.044   v0.074l24.055,13.889l0.059-0.029v0.074l24.055,13.889l0.059-0.044v0.074l24.055,13.889l0.074-0.044v0.074l24.04,13.889   l0.074-0.029v0.074l24.055,13.889l0.059-0.044v-27.777l-0.059-0.029l0.059-0.044v-27.763l-0.059-0.044l0.059-0.029v-27.777   l-0.059-0.044l0.059-0.029v-27.777l-0.059-0.044l0.059-0.029v-27.777l-0.059-0.029l0.059-0.044v-27.777l-0.059-0.029l0.059-0.044   v-27.777l-0.059-0.029l0.059-0.044v-27.763l-0.059-0.044l0.059-0.029v-27.777l-0.059-0.044l0.059-0.029v-27.777l-0.059-0.044   l0.059-0.029v-27.777l-0.059-0.029l0.059-0.044V87.315z M333.191,379.727l-0.074-0.029l-24.04-13.889l-0.074-0.044l-24.055-13.889   l-0.059-0.029l-24.055-13.889l-0.059-0.044l-24.055-13.889l-0.074-0.029l-24.04-13.889l-0.074-0.044l-24.055,13.889v0.074   l-0.059-0.029l-24.055,13.889v0.074l-0.059-0.044l-24.055,13.889v0.074l-0.074-0.029l-24.04,13.889v0.074l-0.074-0.044   l-24.055,13.889v0.074l-0.059-0.029l0.059-0.044v-27.777l-0.059-0.029l0.059-0.044v-27.777l-0.059-0.029l0.059-0.044v-27.763   l-0.059-0.044l0.059-0.044v-27.763l-0.059-0.044l0.059-0.029v-27.777l-0.059-0.044l0.059-0.029v-27.777l-0.059-0.044l0.059-0.029   v-27.777l-0.059-0.029l0.059-0.044v-27.777l-0.059-0.029l0.059-0.044v-27.763l-0.059-0.044l0.059-0.044v-27.763l-0.059-0.044   l0.059-0.029l24.055-13.889l0.074-0.044l24.04-13.889l0.074-0.029l24.055-13.889l0.059-0.044l24.055-13.889l0.059-0.029   l24.055-13.889l0.074-0.029v0.074l24.04,13.874l0.074-0.029v0.074l24.055,13.889l0.059-0.044v0.074l24.055,13.889l0.059-0.029   v0.074l24.055,13.889l0.074-0.044v0.074l24.04,13.889l0.074-0.029V379.727z"
       id="path5"
       fill="#414042" /><path
       d="M309.077,115.166l-0.074-0.029l-24.055-13.889l-0.059-0.044l-24.055-13.889l-0.059-0.029l-24.055-13.889   l-0.074-0.044l-24.04-13.889l-0.074-0.029l-24.055,13.889v0.074l-0.059-0.044l-24.055,13.889v0.074l-0.059-0.029l-24.055,13.889   v0.074l-0.074-0.044l-24.04,13.889v222.792l24.04-13.889l0.074-0.044v-27.763l-0.074-0.044l0.074-0.044v-27.763l-0.074-0.044   l0.074-0.029v-27.777l-0.074-0.044l0.074-0.029v0.074l24.055,13.889l0.059-0.044v0.074l24.055,13.889l0.059-0.029v0.074   l24.055,13.889l0.074-0.044v0.074l24.04,13.889l0.074-0.044v0.088l24.055,13.874l0.059-0.029v0.074l24.055,13.889l0.059-0.044   v0.074l24.055,13.889l0.074-0.029v-27.777l-0.074-0.044l-24.055-13.874l-0.059-0.044l-24.055-13.889l-0.059-0.029l-24.055-13.889   l-0.074-0.044l0.074-0.029l24.055-13.889l0.059-0.044l24.055-13.889l0.059-0.029l24.055-13.889l0.074-0.044v-27.763l-0.074-0.044   l0.074-0.029v-27.777l-0.074-0.044l0.074-0.029v-27.777l-0.074-0.044l0.074-0.029V115.166z M284.949,212.637l-0.059-0.044   l-24.055,13.889v0.074l-0.059-0.029l-24.055,13.889v0.074l-0.074-0.044l-24.04,13.889v0.074l-0.074-0.029l-24.055-13.889   l-0.059-0.044l-24.055-13.889l-0.059-0.029l-24.055-13.889l-0.074-0.044l0.074-0.029v-27.777l-0.074-0.029l0.074-0.044v-27.777   l-0.074-0.029l0.074-0.044v-27.763l-0.074-0.044l0.074-0.044l24.055-13.874l0.059-0.044l24.055-13.889l0.059-0.029l24.055-13.889   l0.074-0.044v0.074l24.04,13.889l0.074-0.029v0.074l24.055,13.889l0.059-0.044v0.074l24.055,13.889l0.059-0.044V212.637z"
       id="path7"
       fill="#414042" /></g></svg>